<?xml version="1.0" encoding="utf-8"?>
<svg xmlns="http://www.w3.org/2000/svg" class="ionicon" viewBox="0 0 512 512" xmlns:bx="https://boxy-svg.com" width="512px" height="512px">
  <defs>
    <bx:export>
      <bx:file format="svg" path="secureShare.svg" normalization="{&quot;removeBoxySVGMetadata&quot;:true,&quot;removeForeignMetadata&quot;:true,&quot;removeAnimations&quot;:true}"/>
      <bx:file format="svg" href="#object-0"/>
    </bx:export>
  </defs>
  <path d="M 342.843 253.792 C 329.962 253.788 317.639 259.051 308.737 268.36 L 199.291 206.783 C 201.411 198.821 201.411 190.444 199.291 182.483 L 308.737 120.905 C 333.951 147.046 378.008 136.089 388.039 101.183 C 398.071 66.277 366.554 33.601 331.308 42.366 C 305.725 48.728 290.319 74.821 297.105 100.295 L 187.659 161.873 C 162.441 135.579 118.215 146.444 108.052 181.431 C 97.89 216.418 129.413 249.286 164.794 240.594 C 173.514 238.451 181.444 233.873 187.659 227.392 L 297.105 288.97 C 287.752 324.182 320.024 356.315 355.195 346.809 C 390.366 337.303 402.057 293.288 376.239 267.582 C 367.369 258.75 355.36 253.791 342.843 253.792 Z" style=""/>
  <path d="M 226.793 321.97 L 219.976 321.97 L 219.976 287.881 C 219.976 256.39 185.885 236.707 158.612 252.453 C 145.955 259.761 138.158 273.267 138.158 287.881 L 138.158 321.97 L 131.34 321.97 C 116.285 321.988 104.084 334.189 104.067 349.243 L 104.067 424.242 C 104.084 439.297 116.285 451.498 131.34 451.515 L 226.793 451.515 C 241.845 451.498 254.049 439.297 254.067 424.242 L 254.067 349.243 C 254.049 334.189 241.845 321.988 226.793 321.97 Z M 206.339 321.97 L 151.794 321.97 L 151.794 287.881 C 151.794 266.887 174.521 253.765 192.702 264.262 C 201.141 269.134 206.339 278.137 206.339 287.881 L 206.339 321.97 Z" style="fill-rule: nonzero; paint-order: fill; transform-box: fill-box; transform-origin: 50% 50%;" id="object-0"/>
</svg>